<mxfile host="app.diagrams.net" modified="2023-12-11T12:01:35.182Z" agent="Mozilla/5.0 (Macintosh; Intel Mac OS X 10_15_7) AppleWebKit/537.36 (KHTML, like Gecko) Chrome/119.0.0.0 Safari/537.36" version="22.1.7" etag="-eHiQEMaSt6NBdFZpTnN" type="github">
  <diagram name="ページ1" id="hp2kgGf3xWny8ZNr1XFq">
    <mxGraphModel>
      <root>
        <mxCell id="0" />
        <mxCell id="1" parent="0" />
      </root>
    </mxGraphModel>
  </diagram>
</mxfile>
